<?xml version="1.0" encoding="utf-8"?>
<!-- Generator: Adobe Illustrator 17.0.0, SVG Export Plug-In . SVG Version: 6.00 Build 0)  -->
<!DOCTYPE svg PUBLIC "-//W3C//DTD SVG 1.1//EN" "http://www.w3.org/Graphics/SVG/1.1/DTD/svg11.dtd">
<svg version="1.1" id="Layer_1" xmlns="http://www.w3.org/2000/svg" xmlns:xlink="http://www.w3.org/1999/xlink" x="0px" y="0px"
	 width="267.47px" height="324.1px" viewBox="0 0 267.47 324.1" style="enable-background:new 0 0 267.47 324.1;"
	 xml:space="preserve">
<style type="text/css">
	.st0{fill-rule:evenodd;clip-rule:evenodd;fill:none;stroke:#FFFFFF;stroke-width:11.5632;stroke-miterlimit:10;}
	.st1{fill-rule:evenodd;clip-rule:evenodd;fill:#FFFFFF;}
	.st2{fill-rule:evenodd;clip-rule:evenodd;fill:none;stroke:#FFFFFF;stroke-width:12.848;stroke-miterlimit:10;}
	.st3{fill:#FFFFFF;stroke:#E0C921;stroke-width:3.8544;}
	.st4{fill:#FFFFFF;}
</style>
<g>
	<circle class="st0" cx="136.87" cy="133.46" r="99.25"/>
	<circle class="st1" cx="136.87" cy="133.46" r="27.08"/>
	<polyline class="st2" points="37.63,106.38 136.87,133.46 230.45,100.36 	"/>
	<line class="st2" x1="136.87" y1="133.46" x2="136.87" y2="232.71"/>
	<circle class="st3" cx="136.87" cy="133.46" r="18.1"/>
</g>
<g>
	<path class="st4" d="M33.93,270.47h5.11c4.07,0,7.38,0.54,10.58,3.28c3.1,2.66,4.5,6.3,4.5,10.33c0,3.96-1.44,7.45-4.43,10.11
		c-3.24,2.88-6.48,3.42-10.73,3.42h-5.04V270.47z M39.15,294.81c3.31,0,6.08-0.47,8.57-2.81c2.23-2.09,3.38-4.93,3.38-7.96
		c0-3.1-1.19-6.08-3.53-8.13c-2.48-2.2-5.22-2.63-8.42-2.63h-2.2v21.53H39.15z"/>
	<path class="st4" d="M61.36,297.62h-3.02v-27.14h3.92c5.15,0,9.93,1.37,9.93,7.49c0,4.17-2.63,7.13-6.8,7.49l8.64,12.17h-3.71
		l-8.21-11.92h-0.76V297.62z M61.36,283.04h0.94c3.42,0,6.88-0.65,6.88-4.86c0-4.46-3.28-4.9-6.91-4.9h-0.9V283.04z"/>
	<path class="st4" d="M80.94,297.62h-3.02v-27.14h3.02V297.62z"/>
	<path class="st4" d="M94.94,291.17l7.74-20.7h3.28l-11.01,28.76l-11.01-28.76h3.28L94.94,291.17z"/>
	<path class="st4" d="M108.91,270.47h14.07v2.81h-11.05v8.06h10.73v2.81h-10.73v10.66h11.05v2.81h-14.07V270.47z"/>
	<path class="st4" d="M139.22,270.47h4.46c4.93,0,9.07,1.8,9.07,7.34c0,2.2-0.83,4.07-2.66,5.29c3.24,0.79,5.15,3.71,5.15,6.95
		c0,5.4-4.36,7.56-9.72,7.56h-6.3V270.47z M142.25,282.43h1.15c3.42,0,6.33-0.4,6.33-4.61c0-4.1-2.59-4.54-6.3-4.54h-1.19V282.43z
		 M142.25,294.81h3.02c3.38,0,6.95-0.83,6.95-4.97c0-4.21-4.03-4.82-7.34-4.82h-2.63V294.81z"/>
	<path class="st4" d="M186.6,284.08c0,7.81-6.41,14-14.15,14c-7.74,0-14.15-6.19-14.15-14c0-7.78,6.41-14.07,14.15-14.07
		C180.19,270.01,186.6,276.31,186.6,284.08z M161.33,284.05c0,6.12,4.97,11.23,11.12,11.23s11.12-5.11,11.12-11.23
		c0-6.16-4.9-11.23-11.12-11.23C166.22,272.81,161.33,277.89,161.33,284.05z"/>
	<path class="st4" d="M217.63,284.08c0,7.81-6.41,14-14.15,14c-7.74,0-14.15-6.19-14.15-14c0-7.78,6.41-14.07,14.15-14.07
		C211.22,270.01,217.63,276.31,217.63,284.08z M192.36,284.05c0,6.12,4.97,11.23,11.12,11.23s11.12-5.11,11.12-11.23
		c0-6.16-4.9-11.23-11.12-11.23C197.26,272.81,192.36,277.89,192.36,284.05z"/>
	<path class="st4" d="M236.31,270.47h4.07l-12.74,12.63l13.17,14.51h-4.18l-11.12-12.46l-0.76,0.76v11.7h-3.02v-27.14h3.02v11.63
		L236.31,270.47z"/>
</g>
<g>
</g>
<g>
</g>
<g>
</g>
<g>
</g>
<g>
</g>
<g>
</g>
</svg>
