<?xml version="1.0" encoding="utf-8"?>
<!-- Generator: Adobe Illustrator 17.0.0, SVG Export Plug-In . SVG Version: 6.00 Build 0)  -->
<!DOCTYPE svg PUBLIC "-//W3C//DTD SVG 1.1//EN" "http://www.w3.org/Graphics/SVG/1.1/DTD/svg11.dtd">
<svg version="1.1"
	 id="car" xmlns:svg="http://www.w3.org/2000/svg" xmlns:cc="http://creativecommons.org/ns#" xmlns:rdf="http://www.w3.org/1999/02/22-rdf-syntax-ns#" xmlns:dc="http://purl.org/dc/elements/1.1/"
	 xmlns="http://www.w3.org/2000/svg" xmlns:xlink="http://www.w3.org/1999/xlink" x="0px" y="0px" width="500px" height="500px"
	 viewBox="0 0 500 500" style="enable-background:new 0 0 500 500;" xml:space="preserve">
<style type="text/css">
	.st0{fill:#E0C921;}
	.st1{fill:#FFFFFF;}
</style>
<g>
	<g id="left">
		<path class="st0" d="M30,370v69c0,8.86,7.14,16,16,16h40c8.86,0,16-7.14,16-16v-69H30z"/>
		<path class="st0" d="M497.78,227.03l-72.5-170C421.02,47.01,411.11,40,399.5,40h-299c-11.61,0-21.52,7.01-25.78,17.03l-72.5,170
			C0.78,230.4,0,234.1,0,238v94c0,15.51,12.49,28,28,28h444c15.51,0,28-12.49,28-28v-94C500,234.1,499.22,230.4,497.78,227.03z
			 M65,305c-19.33,0-35-15.67-35-35s15.67-35,35-35s35,15.67,35,35S84.33,305,65,305z M250,184.88l-1,0.01l-190.91,0.52
			c12.76-32.03,38.28-96.1,38.28-96.1c4.79-12.02,5.12-13.63,12.04-13.62L249,75.81h2l140.59-0.12c6.92-0.01,7.25,1.6,12.04,13.62
			c0,0,25.52,64.07,38.28,96.1L251,184.89L250,184.88z M435,305c-19.33,0-35-15.67-35-35s15.67-35,35-35s35,15.67,35,35
			S454.33,305,435,305z"/>
		<circle class="st0" cx="65" cy="270" r="35"/>
		<polygon class="st0" points="251,184.88 251,184.89 250,184.88 		"/>
		<circle class="st1" cx="65" cy="270" r="35"/>
	</g>
	<g id="left_1_">
		<path class="st0" d="M470,370v69c0,8.86-7.14,16-16,16h-40c-8.86,0-16-7.14-16-16v-69H470z"/>
		<polygon class="st0" points="250,184.88 249,184.89 249,184.88 		"/>
		<circle class="st0" cx="435" cy="270" r="35"/>
		<circle class="st1" cx="435" cy="270" r="35"/>
	</g>
</g>
</svg>
